<svg xmlns="http://www.w3.org/2000/svg" xmlns:xlink="http://www.w3.org/1999/xlink" width="1168" height="782.72"><rect width="1168" height="782.72" rx="5" ry="5" class="a"/><svg y="0%" x="0%"><circle cx="20" cy="20" r="6" fill="#ff5f58"/><circle cx="40" cy="20" r="6" fill="#ffbd2e"/><circle cx="60" cy="20" r="6" fill="#18c132"/></svg><svg height="694.72" viewBox="0 0 110 69.472" width="1100" x="29" xmlns="http://www.w3.org/2000/svg" xmlns:xlink="http://www.w3.org/1999/xlink" y="64"><style>@keyframes l{0%{transform:translateX(0)}.08%{transform:translateX(-110px)}2.9%{transform:translateX(-220px)}3.07%{transform:translateX(-330px)}3.25%{transform:translateX(-440px)}3.42%{transform:translateX(-550px)}3.6%{transform:translateX(-660px)}3.77%{transform:translateX(-770px)}3.95%{transform:translateX(-880px)}4.12%{transform:translateX(-990px)}4.3%{transform:translateX(-1100px)}4.47%{transform:translateX(-1210px)}4.65%{transform:translateX(-1320px)}4.83%{transform:translateX(-1430px)}5%{transform:translateX(-1540px)}5.18%{transform:translateX(-1650px)}5.35%{transform:translateX(-1760px)}5.53%{transform:translateX(-1870px)}5.71%{transform:translateX(-1980px)}5.88%{transform:translateX(-2090px)}6.06%{transform:translateX(-2200px)}6.23%{transform:translateX(-2310px)}6.41%{transform:translateX(-2420px)}6.58%{transform:translateX(-2530px)}6.76%{transform:translateX(-2640px)}6.93%{transform:translateX(-2750px)}7.11%{transform:translateX(-2860px)}7.28%{transform:translateX(-2970px)}7.45%{transform:translateX(-3080px)}7.63%{transform:translateX(-3190px)}7.81%{transform:translateX(-3300px)}7.98%{transform:translateX(-3410px)}8.16%{transform:translateX(-3520px)}8.33%{transform:translateX(-3630px)}8.51%{transform:translateX(-3740px)}8.68%{transform:translateX(-3850px)}8.86%{transform:translateX(-3960px)}9.03%{transform:translateX(-4070px)}9.2%{transform:translateX(-4180px)}9.38%{transform:translateX(-4290px)}9.55%{transform:translateX(-4400px)}9.73%{transform:translateX(-4510px)}9.9%{transform:translateX(-4620px)}10.08%{transform:translateX(-4730px)}10.25%{transform:translateX(-4840px)}10.43%{transform:translateX(-4950px)}10.6%{transform:translateX(-5060px)}10.78%{transform:translateX(-5170px)}10.95%{transform:translateX(-5280px)}11.12%{transform:translateX(-5390px)}11.3%{transform:translateX(-5500px)}11.48%{transform:translateX(-5610px)}11.66%{transform:translateX(-5720px)}11.83%{transform:translateX(-5830px)}12%{transform:translateX(-5940px)}12.18%{transform:translateX(-6050px)}12.38%{transform:translateX(-6160px)}12.56%{transform:translateX(-6270px)}12.73%{transform:translateX(-6380px)}12.91%{transform:translateX(-6490px)}13.09%{transform:translateX(-6600px)}13.26%{transform:translateX(-6710px)}13.44%{transform:translateX(-6820px)}13.61%{transform:translateX(-6930px)}13.79%{transform:translateX(-7040px)}13.96%{transform:translateX(-7150px)}14.14%{transform:translateX(-7260px)}14.32%{transform:translateX(-7370px)}14.49%{transform:translateX(-7480px)}14.67%{transform:translateX(-7590px)}14.84%{transform:translateX(-7700px)}15.02%{transform:translateX(-7810px)}15.19%{transform:translateX(-7920px)}15.36%{transform:translateX(-8030px)}15.54%{transform:translateX(-8140px)}15.71%{transform:translateX(-8250px)}15.88%{transform:translateX(-8360px)}16.06%{transform:translateX(-8470px)}16.23%{transform:translateX(-8580px)}16.41%{transform:translateX(-8690px)}19.36%{transform:translateX(-8910px)}19.37%{transform:translateX(-9020px)}37.85%{transform:translateX(-9130px)}76.02%{transform:translateX(-9240px)}84.64%{transform:translateX(-9350px)}87.89%{transform:translateX(-9460px)}92.41%{transform:translateX(-9900px)}92.42%{transform:translateX(-10010px)}97.19%{transform:translateX(-10120px)}to{transform:translateX(-10230px)}}.a{fill:#282d35}.f{fill:#71bef2;font-weight:700;white-space:pre}.g,.h,.i,.j{fill:#b9c0cb;white-space:pre}.h,.i,.j{fill:#66c2cd}.i,.j{fill:#e88388;font-weight:700}.j{fill:#b9c0cb}</style><g font-family="Monaco,Consolas,Menlo,'Bitstream Vera Sans Mono','Powerline Symbols',monospace" font-size="1.67"><defs><symbol id="1"><text y="1.67" class="f">$</text></symbol><symbol id="2"><text y="1.67" class="f">$</text><text x="2.004" y="1.67" class="g">./kojuto</text></symbol><symbol id="3"><text y="1.67" class="f">$</text><text x="2.004" y="1.67" class="g">./kojuto</text><text x="11.022" y="1.67" class="g">scan</text></symbol><symbol id="4"><text y="1.67" class="f">$</text><text x="2.004" y="1.67" class="g">./kojuto</text><text x="11.022" y="1.67" class="g">scan</text><text x="16.032" y="1.67" class="g">--local</text></symbol><symbol id="5"><text y="1.67" class="f">$</text><text x="2.004" y="1.67" class="g">./kojuto</text><text x="11.022" y="1.67" class="g">scan</text><text x="16.032" y="1.67" class="g">--local</text><text x="24.048" y="1.67" class="g">probe_alpha-0.1.0-py3-none-any.whl</text></symbol><symbol id="6"><text y="1.67" class="f">$</text><text x="2.004" y="1.67" class="g">./kojuto</text><text x="11.022" y="1.67" class="g">scan</text><text x="16.032" y="1.67" class="g">--local</text><text x="24.048" y="1.67" class="g">probe_alpha-0.1.0-py3-none-any.whl</text><text x="59.118" y="1.67" class="g">-e</text></symbol><symbol id="7"><text y="1.67" class="f">$</text><text x="2.004" y="1.67" class="g">./kojuto</text><text x="11.022" y="1.67" class="g">scan</text><text x="16.032" y="1.67" class="g">--local</text><text x="24.048" y="1.67" class="g">probe_alpha-0.1.0-py3-none-any.whl</text><text x="59.118" y="1.67" class="g">-e</text><text x="62.124" y="1.67" class="g">pypi</text></symbol><symbol id="8"><text y="1.67" class="f">$</text><text x="2.004" y="1.67" class="g">./kojuto</text><text x="11.022" y="1.67" class="g">scan</text><text x="16.032" y="1.67" class="g">--local</text><text x="24.048" y="1.67" class="g">probe_alpha-0.1.0-py3-none-any.whl</text><text x="59.118" y="1.67" class="g">-e</text><text x="62.124" y="1.67" class="g">pypi</text><text x="67.134" y="1.67" class="g">-o</text></symbol><symbol id="9"><text y="1.67" class="f">$</text><text x="2.004" y="1.67" class="g">./kojuto</text><text x="11.022" y="1.67" class="g">scan</text><text x="16.032" y="1.67" class="g">--local</text><text x="24.048" y="1.67" class="g">probe_alpha-0.1.0-py3-none-any.whl</text><text x="59.118" y="1.67" class="g">-e</text><text x="62.124" y="1.67" class="g">pypi</text><text x="67.134" y="1.67" class="g">-o</text><text x="70.14" y="1.67" class="g">/dev/null</text></symbol><symbol id="10"><text x="2.004" y="1.67" class="g">scanning</text><text x="12.024" y="1.67" class="g">probe_alpha</text><text x="24.048" y="1.67" class="g">(pypi)</text></symbol><symbol id="11"><text x="2.004" y="1.67" class="g">probe</text><text x="12.024" y="1.67" class="g">using</text><text x="18.036" y="1.67" class="g">in-container</text><text x="31.062" y="1.67" class="g">strace</text><text x="38.076" y="1.67" class="g">for</text><text x="42.084" y="1.67" class="g">full</text><text x="47.094" y="1.67" class="g">syscall</text><text x="55.11" y="1.67" class="g">coverage</text></symbol><symbol id="12"><text x="2.004" y="1.67" class="g">sandbox</text><text x="12.024" y="1.67" class="g">preparing</text><text x="22.044" y="1.67" class="g">isolated</text><text x="31.062" y="1.67" class="g">container</text></symbol><symbol id="13"><text x="2.004" y="1.67" class="g">probe</text><text x="12.024" y="1.67" class="g">starting</text><text x="21.042" y="1.67" class="g">strace-container</text></symbol><symbol id="14"><text x="2.004" y="1.67" class="g">install</text><text x="12.024" y="1.67" class="h">8s</text></symbol><symbol id="15"><text x="2.004" y="1.67" class="g">import</text><text x="12.024" y="1.67" class="h">1.0s</text><text x="20.04" y="1.67" class="g">Linux</text></symbol><symbol id="16"><text x="2.004" y="1.67" class="g">import</text><text x="12.024" y="1.67" class="h">0.7s</text><text x="20.04" y="1.67" class="g">Windows</text></symbol><symbol id="17"><text x="2.004" y="1.67" class="g">import</text><text x="12.024" y="1.67" class="h">1.0s</text><text x="20.04" y="1.67" class="g">macOS</text></symbol><symbol id="18"><text x="2.004" y="1.67" class="i">✗</text><text x="4.008" y="1.67" class="i">SUSPICIOUS</text><text x="16.032" y="1.67" class="g">probe_alpha@0.1.0</text></symbol><symbol id="19"><text x="2.004" y="1.67" class="h">65</text><text x="5.01" y="1.67" class="g">events</text><text x="12.024" y="1.67" class="g">across</text><text x="19.038" y="1.67" class="h">8</text><text x="21.042" y="1.67" class="g">categories:</text></symbol><symbol id="20"><text x="2.004" y="1.67" class="h">40</text><text x="6.012" y="1.67" class="j">credential_access</text><text x="25.05" y="1.67" class="g">~/.ssh,</text><text x="33.066" y="1.67" class="g">~/.aws,</text><text x="41.082" y="1.67" class="g">~/.git-credentials,</text><text x="61.122" y="1.67" class="g">etc.</text></symbol><symbol id="21"><text x="2.004" y="1.67" class="h">12</text><text x="6.012" y="1.67" class="j">c2_communication</text><text x="25.05" y="1.67" class="g">outbound</text><text x="34.068" y="1.67" class="g">to</text><text x="37.074" y="1.67" class="g">non-loopback</text><text x="50.1" y="1.67" class="g">addresses</text></symbol><symbol id="22"><text x="2.004" y="1.67" class="h">3</text><text x="5.01" y="1.67" class="j">code_execution</text><text x="24.048" y="1.67" class="g">execve</text><text x="31.062" y="1.67" class="g">from</text><text x="36.072" y="1.67" class="g">/tmp</text><text x="41.082" y="1.67" class="g">or</text><text x="44.088" y="1.67" class="g">inline</text><text x="51.102" y="1.67" class="g">-c/-e</text></symbol><symbol id="23"><text x="2.004" y="1.67" class="h">2</text><text x="5.01" y="1.67" class="j">anti_forensics</text><text x="24.048" y="1.67" class="g">create-execute-delete</text><text x="46.092" y="1.67" class="g">chain</text></symbol><symbol id="24"><text x="2.004" y="1.67" class="h">2</text><text x="5.01" y="1.67" class="j">dns_tunneling</text><text x="24.048" y="1.67" class="g">high-entropy</text><text x="37.074" y="1.67" class="g">subdomains,</text><text x="49.098" y="1.67" class="g">DoH</text><text x="53.106" y="1.67" class="g">connect</text></symbol><symbol id="25"><text x="2.004" y="1.67" class="h">2</text><text x="5.01" y="1.67" class="j">evasion</text><text x="24.048" y="1.67" class="g">ptrace</text><text x="31.062" y="1.67" class="g">self-check,</text><text x="43.086" y="1.67" class="g">sandbox</text><text x="51.102" y="1.67" class="g">detection</text></symbol><symbol id="26"><text x="2.004" y="1.67" class="h">2</text><text x="5.01" y="1.67" class="j">memory_execution</text><text x="24.048" y="1.67" class="g">shellcode</text><text x="34.068" y="1.67" class="g">injection</text><text x="44.088" y="1.67" class="g">(mmap+mprotect</text><text x="59.118" y="1.67" class="g">RWX)</text></symbol><symbol id="27"><text x="2.004" y="1.67" class="h">2</text><text x="5.01" y="1.67" class="j">persistence</text><text x="24.048" y="1.67" class="g">.bashrc</text><text x="32.064" y="1.67" class="g">/</text><text x="34.068" y="1.67" class="g">shell</text><text x="40.08" y="1.67" class="g">startup</text><text x="48.096" y="1.67" class="g">/</text><text x="50.1" y="1.67" class="g">home</text><text x="55.11" y="1.67" class="g">directory</text><text x="65.13" y="1.67" class="g">write</text></symbol><symbol id="28"><text x="2.004" y="1.67" class="g">Do</text><text x="5.01" y="1.67" class="g">NOT</text><text x="9.018" y="1.67" class="g">install</text><text x="17.034" y="1.67" class="g">this</text><text x="22.044" y="1.67" class="g">package.</text><text x="31.062" y="1.67" class="g">If</text><text x="34.068" y="1.67" class="g">previously</text><text x="45.09" y="1.67" class="g">installed,</text><text x="56.112" y="1.67" class="g">inspect</text><text x="64.128" y="1.67" class="g">shell</text><text x="70.14" y="1.67" class="g">startup</text><text x="78.156" y="1.67" class="g">files</text><text x="84.168" y="1.67" class="g">(.bashrc,</text><text x="94.188" y="1.67" class="g">.zshrc,</text><text x="102.204" y="1.67" class="g">.profile</text></symbol><symbol id="29"><text y="1.67" class="g">)</text><text x="2.004" y="1.67" class="g">and</text><text x="6.012" y="1.67" class="g">crontab</text><text x="14.028" y="1.67" class="g">for</text><text x="18.036" y="1.67" class="g">injected</text><text x="27.054" y="1.67" class="g">malicious</text><text x="37.074" y="1.67" class="g">code.</text></symbol><symbol id="a"><path fill="transparent" d="M0 0h110v33H0z"/></symbol></defs><path class="a" d="M0 0h110v69.472H0z"/><g style="animation-duration:21.483405s;animation-iteration-count:infinite;animation-name:l;animation-timing-function:steps(1,end)"><svg width="10340"><svg><use xlink:href="#a"/></svg><svg x="110"><use xlink:href="#a"/><use xlink:href="#1"/></svg><svg x="220"><use xlink:href="#a"/><text y="1.67" class="f">$</text><text x="2.004" y="1.67" class="g">.</text></svg><svg x="330"><use xlink:href="#a"/><text y="1.67" class="f">$</text><text x="2.004" y="1.67" class="g">./</text></svg><svg x="440"><use xlink:href="#a"/><text y="1.67" class="f">$</text><text x="2.004" y="1.67" class="g">./k</text></svg><svg x="550"><use xlink:href="#a"/><text y="1.67" class="f">$</text><text x="2.004" y="1.67" class="g">./ko</text></svg><svg x="660"><use xlink:href="#a"/><text y="1.67" class="f">$</text><text x="2.004" y="1.67" class="g">./koj</text></svg><svg x="770"><use xlink:href="#a"/><text y="1.67" class="f">$</text><text x="2.004" y="1.67" class="g">./koju</text></svg><svg x="880"><use xlink:href="#a"/><text y="1.67" class="f">$</text><text x="2.004" y="1.67" class="g">./kojut</text></svg><svg x="990"><use xlink:href="#a"/><use xlink:href="#2"/></svg><svg x="1100"><use xlink:href="#a"/><use xlink:href="#2"/></svg><svg x="1210"><use xlink:href="#a"/><text y="1.67" class="f">$</text><text x="2.004" y="1.67" class="g">./kojuto</text><text x="11.022" y="1.67" class="g">s</text></svg><svg x="1320"><use xlink:href="#a"/><text y="1.67" class="f">$</text><text x="2.004" y="1.67" class="g">./kojuto</text><text x="11.022" y="1.67" class="g">sc</text></svg><svg x="1430"><use xlink:href="#a"/><text y="1.67" class="f">$</text><text x="2.004" y="1.67" class="g">./kojuto</text><text x="11.022" y="1.67" class="g">sca</text></svg><svg x="1540"><use xlink:href="#a"/><use xlink:href="#3"/></svg><svg x="1650"><use xlink:href="#a"/><use xlink:href="#3"/></svg><svg x="1760"><use xlink:href="#a"/><text y="1.67" class="f">$</text><text x="2.004" y="1.67" class="g">./kojuto</text><text x="11.022" y="1.67" class="g">scan</text><text x="16.032" y="1.67" class="g">-</text></svg><svg x="1870"><use xlink:href="#a"/><text y="1.67" class="f">$</text><text x="2.004" y="1.67" class="g">./kojuto</text><text x="11.022" y="1.67" class="g">scan</text><text x="16.032" y="1.67" class="g">--</text></svg><svg x="1980"><use xlink:href="#a"/><text y="1.67" class="f">$</text><text x="2.004" y="1.67" class="g">./kojuto</text><text x="11.022" y="1.67" class="g">scan</text><text x="16.032" y="1.67" class="g">--l</text></svg><svg x="2090"><use xlink:href="#a"/><text y="1.67" class="f">$</text><text x="2.004" y="1.67" class="g">./kojuto</text><text x="11.022" y="1.67" class="g">scan</text><text x="16.032" y="1.67" class="g">--lo</text></svg><svg x="2200"><use xlink:href="#a"/><text y="1.67" class="f">$</text><text x="2.004" y="1.67" class="g">./kojuto</text><text x="11.022" y="1.67" class="g">scan</text><text x="16.032" y="1.67" class="g">--loc</text></svg><svg x="2310"><use xlink:href="#a"/><text y="1.67" class="f">$</text><text x="2.004" y="1.67" class="g">./kojuto</text><text x="11.022" y="1.67" class="g">scan</text><text x="16.032" y="1.67" class="g">--loca</text></svg><svg x="2420"><use xlink:href="#a"/><use xlink:href="#4"/></svg><svg x="2530"><use xlink:href="#a"/><use xlink:href="#4"/></svg><svg x="2640"><use xlink:href="#a"/><text y="1.67" class="f">$</text><text x="2.004" y="1.67" class="g">./kojuto</text><text x="11.022" y="1.67" class="g">scan</text><text x="16.032" y="1.67" class="g">--local</text><text x="24.048" y="1.67" class="g">p</text></svg><svg x="2750"><use xlink:href="#a"/><text y="1.67" class="f">$</text><text x="2.004" y="1.67" class="g">./kojuto</text><text x="11.022" y="1.67" class="g">scan</text><text x="16.032" y="1.67" class="g">--local</text><text x="24.048" y="1.67" class="g">pr</text></svg><svg x="2860"><use xlink:href="#a"/><text y="1.67" class="f">$</text><text x="2.004" y="1.67" class="g">./kojuto</text><text x="11.022" y="1.67" class="g">scan</text><text x="16.032" y="1.67" class="g">--local</text><text x="24.048" y="1.67" class="g">pro</text></svg><svg x="2970"><use xlink:href="#a"/><text y="1.67" class="f">$</text><text x="2.004" y="1.67" class="g">./kojuto</text><text x="11.022" y="1.67" class="g">scan</text><text x="16.032" y="1.67" class="g">--local</text><text x="24.048" y="1.67" class="g">prob</text></svg><svg x="3080"><use xlink:href="#a"/><text y="1.67" class="f">$</text><text x="2.004" y="1.67" class="g">./kojuto</text><text x="11.022" y="1.67" class="g">scan</text><text x="16.032" y="1.67" class="g">--local</text><text x="24.048" y="1.67" class="g">probe</text></svg><svg x="3190"><use xlink:href="#a"/><text y="1.67" class="f">$</text><text x="2.004" y="1.67" class="g">./kojuto</text><text x="11.022" y="1.67" class="g">scan</text><text x="16.032" y="1.67" class="g">--local</text><text x="24.048" y="1.67" class="g">probe_</text></svg><svg x="3300"><use xlink:href="#a"/><text y="1.67" class="f">$</text><text x="2.004" y="1.67" class="g">./kojuto</text><text x="11.022" y="1.67" class="g">scan</text><text x="16.032" y="1.67" class="g">--local</text><text x="24.048" y="1.67" class="g">probe_a</text></svg><svg x="3410"><use xlink:href="#a"/><text y="1.67" class="f">$</text><text x="2.004" y="1.67" class="g">./kojuto</text><text x="11.022" y="1.67" class="g">scan</text><text x="16.032" y="1.67" class="g">--local</text><text x="24.048" y="1.67" class="g">probe_al</text></svg><svg x="3520"><use xlink:href="#a"/><text y="1.67" class="f">$</text><text x="2.004" y="1.67" class="g">./kojuto</text><text x="11.022" y="1.67" class="g">scan</text><text x="16.032" y="1.67" class="g">--local</text><text x="24.048" y="1.67" class="g">probe_alp</text></svg><svg x="3630"><use xlink:href="#a"/><text y="1.67" class="f">$</text><text x="2.004" y="1.67" class="g">./kojuto</text><text x="11.022" y="1.67" class="g">scan</text><text x="16.032" y="1.67" class="g">--local</text><text x="24.048" y="1.67" class="g">probe_alph</text></svg><svg x="3740"><use xlink:href="#a"/><text y="1.67" class="f">$</text><text x="2.004" y="1.67" class="g">./kojuto</text><text x="11.022" y="1.67" class="g">scan</text><text x="16.032" y="1.67" class="g">--local</text><text x="24.048" y="1.67" class="g">probe_alpha</text></svg><svg x="3850"><use xlink:href="#a"/><text y="1.67" class="f">$</text><text x="2.004" y="1.67" class="g">./kojuto</text><text x="11.022" y="1.67" class="g">scan</text><text x="16.032" y="1.67" class="g">--local</text><text x="24.048" y="1.67" class="g">probe_alpha-</text></svg><svg x="3960"><use xlink:href="#a"/><text y="1.67" class="f">$</text><text x="2.004" y="1.67" class="g">./kojuto</text><text x="11.022" y="1.67" class="g">scan</text><text x="16.032" y="1.67" class="g">--local</text><text x="24.048" y="1.67" class="g">probe_alpha-0</text></svg><svg x="4070"><use xlink:href="#a"/><text y="1.67" class="f">$</text><text x="2.004" y="1.67" class="g">./kojuto</text><text x="11.022" y="1.67" class="g">scan</text><text x="16.032" y="1.67" class="g">--local</text><text x="24.048" y="1.67" class="g">probe_alpha-0.</text></svg><svg x="4180"><use xlink:href="#a"/><text y="1.67" class="f">$</text><text x="2.004" y="1.67" class="g">./kojuto</text><text x="11.022" y="1.67" class="g">scan</text><text x="16.032" y="1.67" class="g">--local</text><text x="24.048" y="1.67" class="g">probe_alpha-0.1</text></svg><svg x="4290"><use xlink:href="#a"/><text y="1.67" class="f">$</text><text x="2.004" y="1.67" class="g">./kojuto</text><text x="11.022" y="1.67" class="g">scan</text><text x="16.032" y="1.67" class="g">--local</text><text x="24.048" y="1.67" class="g">probe_alpha-0.1.</text></svg><svg x="4400"><use xlink:href="#a"/><text y="1.67" class="f">$</text><text x="2.004" y="1.67" class="g">./kojuto</text><text x="11.022" y="1.67" class="g">scan</text><text x="16.032" y="1.67" class="g">--local</text><text x="24.048" y="1.67" class="g">probe_alpha-0.1.0</text></svg><svg x="4510"><use xlink:href="#a"/><text y="1.67" class="f">$</text><text x="2.004" y="1.67" class="g">./kojuto</text><text x="11.022" y="1.67" class="g">scan</text><text x="16.032" y="1.67" class="g">--local</text><text x="24.048" y="1.67" class="g">probe_alpha-0.1.0-</text></svg><svg x="4620"><use xlink:href="#a"/><text y="1.67" class="f">$</text><text x="2.004" y="1.67" class="g">./kojuto</text><text x="11.022" y="1.67" class="g">scan</text><text x="16.032" y="1.67" class="g">--local</text><text x="24.048" y="1.67" class="g">probe_alpha-0.1.0-p</text></svg><svg x="4730"><use xlink:href="#a"/><text y="1.67" class="f">$</text><text x="2.004" y="1.67" class="g">./kojuto</text><text x="11.022" y="1.67" class="g">scan</text><text x="16.032" y="1.67" class="g">--local</text><text x="24.048" y="1.67" class="g">probe_alpha-0.1.0-py</text></svg><svg x="4840"><use xlink:href="#a"/><text y="1.67" class="f">$</text><text x="2.004" y="1.67" class="g">./kojuto</text><text x="11.022" y="1.67" class="g">scan</text><text x="16.032" y="1.67" class="g">--local</text><text x="24.048" y="1.67" class="g">probe_alpha-0.1.0-py3</text></svg><svg x="4950"><use xlink:href="#a"/><text y="1.67" class="f">$</text><text x="2.004" y="1.67" class="g">./kojuto</text><text x="11.022" y="1.67" class="g">scan</text><text x="16.032" y="1.67" class="g">--local</text><text x="24.048" y="1.67" class="g">probe_alpha-0.1.0-py3-</text></svg><svg x="5060"><use xlink:href="#a"/><text y="1.67" class="f">$</text><text x="2.004" y="1.67" class="g">./kojuto</text><text x="11.022" y="1.67" class="g">scan</text><text x="16.032" y="1.67" class="g">--local</text><text x="24.048" y="1.67" class="g">probe_alpha-0.1.0-py3-n</text></svg><svg x="5170"><use xlink:href="#a"/><text y="1.67" class="f">$</text><text x="2.004" y="1.67" class="g">./kojuto</text><text x="11.022" y="1.67" class="g">scan</text><text x="16.032" y="1.67" class="g">--local</text><text x="24.048" y="1.67" class="g">probe_alpha-0.1.0-py3-no</text></svg><svg x="5280"><use xlink:href="#a"/><text y="1.67" class="f">$</text><text x="2.004" y="1.67" class="g">./kojuto</text><text x="11.022" y="1.67" class="g">scan</text><text x="16.032" y="1.67" class="g">--local</text><text x="24.048" y="1.67" class="g">probe_alpha-0.1.0-py3-non</text></svg><svg x="5390"><use xlink:href="#a"/><text y="1.67" class="f">$</text><text x="2.004" y="1.67" class="g">./kojuto</text><text x="11.022" y="1.67" class="g">scan</text><text x="16.032" y="1.67" class="g">--local</text><text x="24.048" y="1.67" class="g">probe_alpha-0.1.0-py3-none</text></svg><svg x="5500"><use xlink:href="#a"/><text y="1.67" class="f">$</text><text x="2.004" y="1.67" class="g">./kojuto</text><text x="11.022" y="1.67" class="g">scan</text><text x="16.032" y="1.67" class="g">--local</text><text x="24.048" y="1.67" class="g">probe_alpha-0.1.0-py3-none-</text></svg><svg x="5610"><use xlink:href="#a"/><text y="1.67" class="f">$</text><text x="2.004" y="1.67" class="g">./kojuto</text><text x="11.022" y="1.67" class="g">scan</text><text x="16.032" y="1.67" class="g">--local</text><text x="24.048" y="1.67" class="g">probe_alpha-0.1.0-py3-none-a</text></svg><svg x="5720"><use xlink:href="#a"/><text y="1.67" class="f">$</text><text x="2.004" y="1.67" class="g">./kojuto</text><text x="11.022" y="1.67" class="g">scan</text><text x="16.032" y="1.67" class="g">--local</text><text x="24.048" y="1.67" class="g">probe_alpha-0.1.0-py3-none-an</text></svg><svg x="5830"><use xlink:href="#a"/><text y="1.67" class="f">$</text><text x="2.004" y="1.67" class="g">./kojuto</text><text x="11.022" y="1.67" class="g">scan</text><text x="16.032" y="1.67" class="g">--local</text><text x="24.048" y="1.67" class="g">probe_alpha-0.1.0-py3-none-any</text></svg><svg x="5940"><use xlink:href="#a"/><text y="1.67" class="f">$</text><text x="2.004" y="1.67" class="g">./kojuto</text><text x="11.022" y="1.67" class="g">scan</text><text x="16.032" y="1.67" class="g">--local</text><text x="24.048" y="1.67" class="g">probe_alpha-0.1.0-py3-none-any.</text></svg><svg x="6050"><use xlink:href="#a"/><text y="1.67" class="f">$</text><text x="2.004" y="1.67" class="g">./kojuto</text><text x="11.022" y="1.67" class="g">scan</text><text x="16.032" y="1.67" class="g">--local</text><text x="24.048" y="1.67" class="g">probe_alpha-0.1.0-py3-none-any.w</text></svg><svg x="6160"><use xlink:href="#a"/><text y="1.67" class="f">$</text><text x="2.004" y="1.67" class="g">./kojuto</text><text x="11.022" y="1.67" class="g">scan</text><text x="16.032" y="1.67" class="g">--local</text><text x="24.048" y="1.67" class="g">probe_alpha-0.1.0-py3-none-any.wh</text></svg><svg x="6270"><use xlink:href="#a"/><use xlink:href="#5"/></svg><svg x="6380"><use xlink:href="#a"/><use xlink:href="#5"/></svg><svg x="6490"><use xlink:href="#a"/><text y="1.67" class="f">$</text><text x="2.004" y="1.67" class="g">./kojuto</text><text x="11.022" y="1.67" class="g">scan</text><text x="16.032" y="1.67" class="g">--local</text><text x="24.048" y="1.67" class="g">probe_alpha-0.1.0-py3-none-any.whl</text><text x="59.118" y="1.67" class="g">-</text></svg><svg x="6600"><use xlink:href="#a"/><use xlink:href="#6"/></svg><svg x="6710"><use xlink:href="#a"/><use xlink:href="#6"/></svg><svg x="6820"><use xlink:href="#a"/><text y="1.67" class="f">$</text><text x="2.004" y="1.67" class="g">./kojuto</text><text x="11.022" y="1.67" class="g">scan</text><text x="16.032" y="1.67" class="g">--local</text><text x="24.048" y="1.67" class="g">probe_alpha-0.1.0-py3-none-any.whl</text><text x="59.118" y="1.67" class="g">-e</text><text x="62.124" y="1.67" class="g">p</text></svg><svg x="6930"><use xlink:href="#a"/><text y="1.67" class="f">$</text><text x="2.004" y="1.67" class="g">./kojuto</text><text x="11.022" y="1.67" class="g">scan</text><text x="16.032" y="1.67" class="g">--local</text><text x="24.048" y="1.67" class="g">probe_alpha-0.1.0-py3-none-any.whl</text><text x="59.118" y="1.67" class="g">-e</text><text x="62.124" y="1.67" class="g">py</text></svg><svg x="7040"><use xlink:href="#a"/><text y="1.67" class="f">$</text><text x="2.004" y="1.67" class="g">./kojuto</text><text x="11.022" y="1.67" class="g">scan</text><text x="16.032" y="1.67" class="g">--local</text><text x="24.048" y="1.67" class="g">probe_alpha-0.1.0-py3-none-any.whl</text><text x="59.118" y="1.67" class="g">-e</text><text x="62.124" y="1.67" class="g">pyp</text></svg><svg x="7150"><use xlink:href="#a"/><use xlink:href="#7"/></svg><svg x="7260"><use xlink:href="#a"/><use xlink:href="#7"/></svg><svg x="7370"><use xlink:href="#a"/><text y="1.67" class="f">$</text><text x="2.004" y="1.67" class="g">./kojuto</text><text x="11.022" y="1.67" class="g">scan</text><text x="16.032" y="1.67" class="g">--local</text><text x="24.048" y="1.67" class="g">probe_alpha-0.1.0-py3-none-any.whl</text><text x="59.118" y="1.67" class="g">-e</text><text x="62.124" y="1.67" class="g">pypi</text><text x="67.134" y="1.67" class="g">-</text></svg><svg x="7480"><use xlink:href="#a"/><use xlink:href="#8"/></svg><svg x="7590"><use xlink:href="#a"/><use xlink:href="#8"/></svg><svg x="7700"><use xlink:href="#a"/><text y="1.67" class="f">$</text><text x="2.004" y="1.67" class="g">./kojuto</text><text x="11.022" y="1.67" class="g">scan</text><text x="16.032" y="1.67" class="g">--local</text><text x="24.048" y="1.67" class="g">probe_alpha-0.1.0-py3-none-any.whl</text><text x="59.118" y="1.67" class="g">-e</text><text x="62.124" y="1.67" class="g">pypi</text><text x="67.134" y="1.67" class="g">-o</text><text x="70.14" y="1.67" class="g">/</text></svg><svg x="7810"><use xlink:href="#a"/><text y="1.67" class="f">$</text><text x="2.004" y="1.67" class="g">./kojuto</text><text x="11.022" y="1.67" class="g">scan</text><text x="16.032" y="1.67" class="g">--local</text><text x="24.048" y="1.67" class="g">probe_alpha-0.1.0-py3-none-any.whl</text><text x="59.118" y="1.67" class="g">-e</text><text x="62.124" y="1.67" class="g">pypi</text><text x="67.134" y="1.67" class="g">-o</text><text x="70.14" y="1.67" class="g">/d</text></svg><svg x="7920"><use xlink:href="#a"/><text y="1.67" class="f">$</text><text x="2.004" y="1.67" class="g">./kojuto</text><text x="11.022" y="1.67" class="g">scan</text><text x="16.032" y="1.67" class="g">--local</text><text x="24.048" y="1.67" class="g">probe_alpha-0.1.0-py3-none-any.whl</text><text x="59.118" y="1.67" class="g">-e</text><text x="62.124" y="1.67" class="g">pypi</text><text x="67.134" y="1.67" class="g">-o</text><text x="70.14" y="1.67" class="g">/de</text></svg><svg x="8030"><use xlink:href="#a"/><text y="1.67" class="f">$</text><text x="2.004" y="1.67" class="g">./kojuto</text><text x="11.022" y="1.67" class="g">scan</text><text x="16.032" y="1.67" class="g">--local</text><text x="24.048" y="1.67" class="g">probe_alpha-0.1.0-py3-none-any.whl</text><text x="59.118" y="1.67" class="g">-e</text><text x="62.124" y="1.67" class="g">pypi</text><text x="67.134" y="1.67" class="g">-o</text><text x="70.14" y="1.67" class="g">/dev</text></svg><svg x="8140"><use xlink:href="#a"/><text y="1.67" class="f">$</text><text x="2.004" y="1.67" class="g">./kojuto</text><text x="11.022" y="1.67" class="g">scan</text><text x="16.032" y="1.67" class="g">--local</text><text x="24.048" y="1.67" class="g">probe_alpha-0.1.0-py3-none-any.whl</text><text x="59.118" y="1.67" class="g">-e</text><text x="62.124" y="1.67" class="g">pypi</text><text x="67.134" y="1.67" class="g">-o</text><text x="70.14" y="1.67" class="g">/dev/</text></svg><svg x="8250"><use xlink:href="#a"/><text y="1.67" class="f">$</text><text x="2.004" y="1.67" class="g">./kojuto</text><text x="11.022" y="1.67" class="g">scan</text><text x="16.032" y="1.67" class="g">--local</text><text x="24.048" y="1.67" class="g">probe_alpha-0.1.0-py3-none-any.whl</text><text x="59.118" y="1.67" class="g">-e</text><text x="62.124" y="1.67" class="g">pypi</text><text x="67.134" y="1.67" class="g">-o</text><text x="70.14" y="1.67" class="g">/dev/n</text></svg><svg x="8360"><use xlink:href="#a"/><text y="1.67" class="f">$</text><text x="2.004" y="1.67" class="g">./kojuto</text><text x="11.022" y="1.67" class="g">scan</text><text x="16.032" y="1.67" class="g">--local</text><text x="24.048" y="1.67" class="g">probe_alpha-0.1.0-py3-none-any.whl</text><text x="59.118" y="1.67" class="g">-e</text><text x="62.124" y="1.67" class="g">pypi</text><text x="67.134" y="1.67" class="g">-o</text><text x="70.14" y="1.67" class="g">/dev/nu</text></svg><svg x="8470"><use xlink:href="#a"/><text y="1.67" class="f">$</text><text x="2.004" y="1.67" class="g">./kojuto</text><text x="11.022" y="1.67" class="g">scan</text><text x="16.032" y="1.67" class="g">--local</text><text x="24.048" y="1.67" class="g">probe_alpha-0.1.0-py3-none-any.whl</text><text x="59.118" y="1.67" class="g">-e</text><text x="62.124" y="1.67" class="g">pypi</text><text x="67.134" y="1.67" class="g">-o</text><text x="70.14" y="1.67" class="g">/dev/nul</text></svg><svg x="8580"><use xlink:href="#a"/><use xlink:href="#9"/></svg><svg x="8690"><use xlink:href="#a"/><use xlink:href="#9"/></svg><svg x="8800"><use xlink:href="#a"/><use xlink:href="#9"/><use xlink:href="#10" y="2.171"/></svg><svg x="8910"><use xlink:href="#a"/><use xlink:href="#9"/><use xlink:href="#10" y="2.171"/><use xlink:href="#11" y="4.342"/></svg><svg x="9020"><use xlink:href="#a"/><use xlink:href="#9"/><use xlink:href="#10" y="2.171"/><use xlink:href="#11" y="4.342"/><use xlink:href="#12" y="6.513"/></svg><svg x="9130"><use xlink:href="#a"/><use xlink:href="#9"/><use xlink:href="#10" y="2.171"/><use xlink:href="#11" y="4.342"/><use xlink:href="#12" y="6.513"/><use xlink:href="#13" y="8.684"/></svg><svg x="9240"><use xlink:href="#a"/><use xlink:href="#9"/><use xlink:href="#10" y="2.171"/><use xlink:href="#11" y="4.342"/><use xlink:href="#12" y="6.513"/><use xlink:href="#13" y="8.684"/><use xlink:href="#14" y="10.855"/></svg><svg x="9350"><use xlink:href="#a"/><use xlink:href="#9"/><use xlink:href="#10" y="2.171"/><use xlink:href="#11" y="4.342"/><use xlink:href="#12" y="6.513"/><use xlink:href="#13" y="8.684"/><use xlink:href="#14" y="10.855"/><use xlink:href="#15" y="13.026"/></svg><svg x="9460"><use xlink:href="#a"/><use xlink:href="#9"/><use xlink:href="#10" y="2.171"/><use xlink:href="#11" y="4.342"/><use xlink:href="#12" y="6.513"/><use xlink:href="#13" y="8.684"/><use xlink:href="#14" y="10.855"/><use xlink:href="#15" y="13.026"/><use xlink:href="#16" y="15.197"/></svg><svg x="9570"><use xlink:href="#a"/><use xlink:href="#9"/><use xlink:href="#10" y="2.171"/><use xlink:href="#11" y="4.342"/><use xlink:href="#12" y="6.513"/><use xlink:href="#13" y="8.684"/><use xlink:href="#14" y="10.855"/><use xlink:href="#15" y="13.026"/><use xlink:href="#16" y="15.197"/><use xlink:href="#17" y="17.368"/></svg><svg x="9680"><use xlink:href="#a"/><use xlink:href="#9"/><use xlink:href="#10" y="2.171"/><use xlink:href="#11" y="4.342"/><use xlink:href="#12" y="6.513"/><use xlink:href="#13" y="8.684"/><use xlink:href="#14" y="10.855"/><use xlink:href="#15" y="13.026"/><use xlink:href="#16" y="15.197"/><use xlink:href="#17" y="17.368"/><use xlink:href="#18" y="21.71"/><use xlink:href="#19" y="26.052"/></svg><svg x="9790"><use xlink:href="#a"/><use xlink:href="#9"/><use xlink:href="#10" y="2.171"/><use xlink:href="#11" y="4.342"/><use xlink:href="#12" y="6.513"/><use xlink:href="#13" y="8.684"/><use xlink:href="#14" y="10.855"/><use xlink:href="#15" y="13.026"/><use xlink:href="#16" y="15.197"/><use xlink:href="#17" y="17.368"/><use xlink:href="#18" y="21.71"/><use xlink:href="#19" y="26.052"/><use xlink:href="#20" y="28.223"/><use xlink:href="#21" y="30.394"/><use xlink:href="#22" y="32.565"/></svg><svg x="9900"><use xlink:href="#a"/><use xlink:href="#9"/><use xlink:href="#10" y="2.171"/><use xlink:href="#11" y="4.342"/><use xlink:href="#12" y="6.513"/><use xlink:href="#13" y="8.684"/><use xlink:href="#14" y="10.855"/><use xlink:href="#15" y="13.026"/><use xlink:href="#16" y="15.197"/><use xlink:href="#17" y="17.368"/><use xlink:href="#18" y="21.71"/><use xlink:href="#19" y="26.052"/><use xlink:href="#20" y="28.223"/><use xlink:href="#21" y="30.394"/><use xlink:href="#22" y="32.565"/><use xlink:href="#23" y="34.736"/><use xlink:href="#24" y="36.907"/><use xlink:href="#25" y="39.078"/><use xlink:href="#26" y="41.249"/></svg><svg x="10010"><use xlink:href="#a"/><use xlink:href="#9"/><use xlink:href="#10" y="2.171"/><use xlink:href="#11" y="4.342"/><use xlink:href="#12" y="6.513"/><use xlink:href="#13" y="8.684"/><use xlink:href="#14" y="10.855"/><use xlink:href="#15" y="13.026"/><use xlink:href="#16" y="15.197"/><use xlink:href="#17" y="17.368"/><use xlink:href="#18" y="21.71"/><use xlink:href="#19" y="26.052"/><use xlink:href="#20" y="28.223"/><use xlink:href="#21" y="30.394"/><use xlink:href="#22" y="32.565"/><use xlink:href="#23" y="34.736"/><use xlink:href="#24" y="36.907"/><use xlink:href="#25" y="39.078"/><use xlink:href="#26" y="41.249"/><use xlink:href="#27" y="43.42"/><use xlink:href="#28" y="47.762"/><use xlink:href="#29" y="49.933"/></svg><svg x="10120"><use xlink:href="#a"/><use xlink:href="#9"/><use xlink:href="#10" y="2.171"/><use xlink:href="#11" y="4.342"/><use xlink:href="#12" y="6.513"/><use xlink:href="#13" y="8.684"/><use xlink:href="#14" y="10.855"/><use xlink:href="#15" y="13.026"/><use xlink:href="#16" y="15.197"/><use xlink:href="#17" y="17.368"/><use xlink:href="#18" y="21.71"/><use xlink:href="#19" y="26.052"/><use xlink:href="#20" y="28.223"/><use xlink:href="#21" y="30.394"/><use xlink:href="#22" y="32.565"/><use xlink:href="#23" y="34.736"/><use xlink:href="#24" y="36.907"/><use xlink:href="#25" y="39.078"/><use xlink:href="#26" y="41.249"/><use xlink:href="#27" y="43.42"/><use xlink:href="#28" y="47.762"/><use xlink:href="#29" y="49.933"/><use xlink:href="#1" y="52.104"/></svg><svg x="10230"><use xlink:href="#a"/><use xlink:href="#9"/><use xlink:href="#10" y="2.171"/><use xlink:href="#11" y="4.342"/><use xlink:href="#12" y="6.513"/><use xlink:href="#13" y="8.684"/><use xlink:href="#14" y="10.855"/><use xlink:href="#15" y="13.026"/><use xlink:href="#16" y="15.197"/><use xlink:href="#17" y="17.368"/><use xlink:href="#18" y="21.71"/><use xlink:href="#19" y="26.052"/><use xlink:href="#20" y="28.223"/><use xlink:href="#21" y="30.394"/><use xlink:href="#22" y="32.565"/><use xlink:href="#23" y="34.736"/><use xlink:href="#24" y="36.907"/><use xlink:href="#25" y="39.078"/><use xlink:href="#26" y="41.249"/><use xlink:href="#27" y="43.42"/><use xlink:href="#28" y="47.762"/><use xlink:href="#29" y="49.933"/><use xlink:href="#1" y="52.104"/></svg></svg></g></g></svg></svg>